<svg width="30px" height="31px" viewBox="487 0 30 31" version="1.1" xmlns="http://www.w3.org/2000/svg" xmlns:xlink="http://www.w3.org/1999/xlink">
    <path d="M515.571429,14.7857143 C515.571429,22.0571429 510.128571,28.0571429 503.1,28.9571429 L503.1,20.0142857 L506.471429,20.0142857 L506.471429,15.5285714 L503.1,15.5285714 L503.1,12.7142857 C503.1,11.9428571 503.457143,11.0285714 504.228571,11.0285714 L506.471429,11.0285714 L506.471429,6.52857143 L503.1,6.52857143 C500.628571,6.52857143 498.614286,8.54285714 498.614286,11.0285714 L498.614286,15.5285714 L495.242857,15.5285714 L495.242857,20.0142857 L498.614286,20.0142857 L498.614286,28.8142857 C492,27.5714286 487,21.7571429 487,14.7857143 C487,6.9 493.4,0.5 501.285714,0.5 C509.171429,0.5 515.571429,6.9 515.571429,14.7857143" id="Imported-Layers" stroke="none" fill="#FFFFFF" fill-rule="evenodd"/>
</svg>