<?xml version="1.0" encoding="UTF-8"?><!DOCTYPE svg PUBLIC "-//W3C//DTD SVG 1.1//EN" "http://www.w3.org/Graphics/SVG/1.1/DTD/svg11.dtd"><svg xmlns="http://www.w3.org/2000/svg" class="_hide"><symbol id="android" viewBox="0 0 21 20"><path d="M4.466 7.429h-.752v5.195h.012v5.45c0 .416.331.754.74.754h1.581v3.354c0 .74.59 1.342 1.317 1.342a1.33 1.33 0 0 0 1.316-1.342v-3.354h2.449v3.354c0 .74.59 1.342 1.317 1.342a1.33 1.33 0 0 0 1.316-1.342v-3.354h1.582c.408 0 .74-.338.74-.754v-5.45h.011V7.43H4.465M18.571 7.429c-.683 0-1.238.597-1.238 1.334v5.998c0 .737.555 1.334 1.238 1.334.684 0 1.239-.597 1.239-1.334V8.763c0-.737-.555-1.334-1.239-1.334M1.238 7.429C.554 7.429 0 8.026 0 8.763v5.998c0 .737.554 1.334 1.238 1.334.684 0 1.238-.597 1.238-1.334V8.763c0-.737-.554-1.334-1.238-1.334M12.916 1.636L13.983.17c.022-.03-.01-.09-.072-.132-.06-.042-.129-.052-.15-.021L12.658 1.53c-.745-.283-1.653-.459-2.755-.462-1.108-.004-2.018.166-2.765.448L6.048.018c-.022-.03-.09-.02-.15.021-.062.043-.094.102-.072.132l1.053 1.446C3.802 2.94 3.714 6.19 3.714 6.19h12.381s-.123-3.22-3.18-4.554zM6.809 4.952a.62.62 0 1 1 .002-1.238.62.62 0 0 1-.002 1.238zm6.19 0a.618.618 0 1 1 0-1.236.618.618 0 0 1 0 1.236z"/></symbol><symbol id="apple" viewBox="0 0 21 25"><path d="M13.57 4.289C15.16 2.185 14.83 0 14.83 0s-2.224.011-3.823 2.335C9.584 4.4 9.946 6.168 9.946 6.168s1.928.368 3.625-1.879"/><path d="M16.536 13.269c0-3.28 2.628-4.633 2.628-4.633S17.82 6.19 14.404 6.19c-1.984 0-3.508 1.137-4.33 1.137-.956 0-2.384-1.068-4.225-1.068C3.02 6.259 0 8.809 0 13.672c0 4.942 3.566 11.09 6.388 11.09.986 0 2.498-.999 4.023-.999 1.496 0 2.6.963 4.02.963 3.09 0 5.379-6.481 5.379-6.481s-3.274-1.276-3.274-4.976"/></symbol><symbol id="conference-room" viewBox="0 0 81 90.995"><path d="M77.243 19.931L44.257.886c-2.045-1.181-5.468-1.181-7.516 0L3.757 19.93C1.65 21.148 0 24.006 0 26.438v38.088c0 2.433 1.65 5.291 3.757 6.508l32.984 19.044c1.024.59 2.359.916 3.759.916 1.399 0 2.735-.326 3.759-.916l32.984-19.044C79.35 69.817 81 66.959 81 64.526V26.439c0-2.433-1.65-5.291-3.757-6.508zm-35.068 67.98c-1.006.309-2.343.309-3.349 0V77.784h3.349v10.127zm1.85-12.946h-7.049a2.117 2.117 0 0 1-2.115-2.115v-1.757c.001-.013.008-.024.009-.038.001-.041-.006-.08-.009-.12v-6.421H46.14v8.335a2.119 2.119 0 0 1-2.115 2.116zm-8.986-22.521h-6.788v-3.937h6.788a1.41 1.41 0 0 0 0-2.818h-6.788v-3.936h6.788a1.41 1.41 0 0 0 0-2.819h-6.788v-3.937h24.497v3.937H45.96a1.41 1.41 0 0 0 0 2.819h6.788v3.936H45.96a1.41 1.41 0 0 0 0 2.818h6.788v3.937H45.96a1.41 1.41 0 0 0 0 2.818h6.788v.793c0 3.11-2.53 5.64-5.64 5.64H33.891c-3.11 0-5.64-2.53-5.64-5.64v-.793h6.788a1.41 1.41 0 0 0 0-2.818zm-1.296-24.941a1.41 1.41 0 0 0 1.409-1.409l.002-3.875h3.936v3.874a1.41 1.41 0 0 0 2.818 0V22.22h3.938l-.002 3.873a1.409 1.409 0 1 0 2.818.001l.002-3.651c2.354.678 4.082 2.847 4.082 5.416v4.318H28.251v-4.318a5.644 5.644 0 0 1 4.084-5.416l-.002 3.65a1.41 1.41 0 0 0 1.41 1.41zm44.438 37.023c0 1.444-1.098 3.344-2.349 4.066L44.994 86.396v-8.711a4.94 4.94 0 0 0 3.965-4.836v-.533c8.136-.928 14.547-7.947 14.547-16.264v-11.6a2.783 2.783 0 0 0 1.298-2.351 2.79 2.79 0 1 0-5.58 0c0 1.058.596 1.967 1.463 2.44v11.511c0 6.778-5.143 12.52-11.729 13.429v-5.177c3.776-.847 6.609-4.22 6.609-8.249V27.859c0-4.665-3.795-8.459-8.459-8.459H33.891c-4.664 0-8.459 3.794-8.459 8.459v28.197c0 4.029 2.833 7.402 6.609 8.249v5.179c-6.673-.896-11.711-6.536-11.711-13.431V44.532a2.777 2.777 0 0 0 1.445-2.43 2.79 2.79 0 1 0-5.58 0c0 .998.528 1.867 1.317 2.361v11.591c0 8.46 6.28 15.35 14.53 16.265v.532a4.94 4.94 0 0 0 3.965 4.836v8.711L5.168 68.592c-1.251-.722-2.349-2.622-2.349-4.066V26.438c0-1.443 1.098-3.343 2.349-4.066L38.151 3.329c.594-.342 1.449-.538 2.349-.538.9 0 1.755.196 2.347.538l32.984 19.044c1.251.722 2.349 2.622 2.349 4.066v38.087z" stroke="#fff" stroke-miterlimit="10"/></symbol><symbol id="coworking" viewBox="0 0 81 90.971"><g><path d="M80.959 64.516v-3.204c.011-.073.041-.138.041-.215 0-.069-.031-.128-.041-.194V26.447c0-2.431-1.65-5.287-3.755-6.505L44.234.908c-2.044-1.18-5.465-1.18-7.512 0L3.753 19.942C1.648 21.159 0 24.016 0 26.447v38.069c0 2.431 1.648 5.289 3.753 6.505l32.968 19.034c1.023.59 2.358.916 3.757.916s2.733-.326 3.757-.916l32.968-19.034c1.069-.618 2.018-1.66 2.695-2.853.015-.031.033-.058.046-.09.628-1.134 1.015-2.395 1.015-3.562zm-37.513 1.637v-3.647h34.695v2.01c0 .513-.144 1.082-.378 1.637H43.446zm-5.314 21.461L5.164 68.58c-1.251-.722-2.346-2.621-2.346-4.064V26.447c0-1.443 1.096-3.342 2.346-4.064L38.13 3.349c.593-.341 1.448-.538 2.348-.538.9 0 1.755.196 2.346.538l32.968 19.034c1.251.722 2.348 2.622 2.348 4.064v33.242H42.037c-.778 0-1.409.63-1.409 1.409v6.464a1.41 1.41 0 0 0 1.409 1.409h33.08L45.854 85.865l-.131-7.101c-.05-2.696-2.286-4.913-4.985-4.94l-14.582-.149c-.509-.005-.939-.19-1.208-.52s-.363-.789-.263-1.289l1.349-6.819a1.41 1.41 0 0 0-1.109-1.656 1.4 1.4 0 0 0-1.656 1.109l-1.349 6.82c-.26 1.318.046 2.636.843 3.614.795.977 2.021 1.546 3.366 1.559l14.582.149c1.168.012 2.173 1.008 2.195 2.175l.153 8.283c.002.12.043.227.074.338l-.307.178c-1.185.683-3.51.683-4.694-.002z"/><path d="M27.34 36.259c4.288 0 7.777-3.489 7.777-7.779s-3.488-7.778-7.777-7.778c-4.29 0-7.779 3.488-7.779 7.778s3.489 7.779 7.779 7.779zm0-12.739c2.735 0 4.959 2.225 4.959 4.96s-2.224 4.961-4.959 4.961-4.961-2.226-4.961-4.961 2.226-4.96 4.961-4.96zM42.044 54.557a1.409 1.409 0 1 0 0 2.818h20.621l.004.001a1.412 1.412 0 0 0 .613-.154c.117-.057.224-.13.323-.218.025-.023.053-.039.076-.064.104-.108.196-.229.264-.372L74.144 34.99a1.41 1.41 0 0 0-.673-1.876l-4.65-2.202a1.41 1.41 0 0 0-1.877.671L56.071 54.557H42.044zm26.844-20.493l2.105.996-9.217 19.498h-2.589l9.701-20.494zM27.904 41.454c.504 0 .925.175 1.183.494.258.318.344.765.241 1.258l-.772 3.701a1.41 1.41 0 0 0 1.092 1.668 1.419 1.419 0 0 0 1.667-1.091l.772-3.701c.275-1.321-.021-2.638-.814-3.612-.791-.974-2.019-1.534-3.37-1.534H23.25c-2.592 0-5.114 1.97-5.744 4.485l-6.193 24.783a1.41 1.41 0 0 0 2.735.683l6.193-24.783c.313-1.252 1.718-2.351 3.009-2.351h4.654z"/><path d="M28.078 57.851c-.667-.278-1.13-1.188-1.266-2.495l-1.029-9.86a1.41 1.41 0 0 0-2.804.292l1.029 9.86c.251 2.402 1.312 4.109 2.99 4.804.513.214 1.054.32 1.61.32 1.259 0 2.599-.54 3.903-1.591l8.51-6.869h5.814a1.409 1.409 0 1 0 0-2.818h-6.313c-.061 0-.114.027-.173.035-.1.012-.197.025-.293.059-.091.032-.169.081-.25.13-.055.033-.118.046-.169.088l-8.897 7.182c-1.021.824-1.988 1.141-2.662.863z"/></g></symbol><symbol id="kitchen" viewBox="0 0 81 90.995"><g><path d="M77.245 19.929L44.258.886c-2.045-1.181-5.468-1.181-7.516 0L3.757 19.929C1.65 21.146 0 24.005 0 26.438v38.089c0 2.433 1.65 5.291 3.757 6.508l32.985 19.044c1.024.59 2.358.916 3.759.916 1.399 0 2.735-.326 3.757-.916l32.987-19.044C79.351 69.818 81 66.959 81 64.526V26.438c0-2.432-1.649-5.291-3.755-6.509zm.936 44.597c0 1.444-1.096 3.344-2.347 4.066L42.847 87.636c-1.186.686-3.511.684-4.693 0L5.168 68.592c-1.251-.722-2.349-2.622-2.349-4.066V26.438c0-1.444 1.098-3.344 2.349-4.066L38.152 3.328c.594-.342 1.449-.538 2.349-.538.898 0 1.754.196 2.346.538l32.987 19.044c1.251.722 2.347 2.622 2.347 4.066v38.088z"/><path d="M36.522 22.469c1.752 0 2.773.615 2.886.777v2.187a1.41 1.41 0 0 0 2.819 0v-2.187c0-2.051-2.452-3.596-5.705-3.596-1.537 0-2.886-.913-2.886-1.954 0-1.04 1.349-1.953 2.886-1.953 3.253 0 5.705-1.582 5.705-3.68v-2.27a1.41 1.41 0 0 0-2.819 0l.009 2.213c-.11.262-1.132.918-2.895.918-3.146 0-5.705 2.141-5.705 4.772 0 2.632 2.559 4.773 5.705 4.773zM71.052 34.377h-9.82c.034-1.754.052-2.943.055-3.116a1.412 1.412 0 0 0-.404-1.011 1.416 1.416 0 0 0-1.005-.42H19.592a1.407 1.407 0 0 0-1.409 1.431c.01.67.253 16.487.745 22.271.295 3.387 2.195 6.935 3.935 9.545h-9.389a1.408 1.408 0 0 0-1.129 2.254c1.943 2.6 4.339 4.889 7.12 6.802.234.162.513.248.799.248h38.933c.286 0 .565-.086.799-.248 2.785-1.916 5.18-4.205 7.118-6.802a1.408 1.408 0 0 0-1.129-2.253h-9.39c1.67-2.505 3.242-5.52 3.767-8.489.061.001.122.011.183.011 6.583 0 11.818-6.03 11.918-13.728l-.002-.009.002-.009v-5.067a1.411 1.411 0 0 0-1.411-1.41zm-8.087 31.518a28.003 28.003 0 0 1-4.213 3.665H20.707a27.835 27.835 0 0 1-4.213-3.665h37.301c.018.001.035.009.053.009.013 0 .025-.008.038-.009h9.079zm-5.249-12.608c-.304 3.491-2.828 7.436-4.567 9.789H26.317c-1.533-2.058-4.266-6.179-4.581-9.787-.399-4.684-.637-16.529-.711-20.641h9.46v5.473H27.38a1.41 1.41 0 0 0-1.409 1.41v12.997a1.41 1.41 0 0 0 1.409 1.409h9.032a1.41 1.41 0 0 0 1.41-1.409V39.531a1.41 1.41 0 0 0-1.41-1.41h-3.106v-5.473h25.139c-.075 4.113-.316 15.956-.729 20.639zM35.002 40.941v10.178h-6.213V40.941h6.213zm25.651 10.826c.162-2.577.293-6.092.391-9.505h8.504c-.64 5.319-4.402 9.438-8.895 9.505zm8.99-12.324H61.12c.019-.777.038-1.534.054-2.248h8.47v2.248z"/></g></symbol><symbol id="meeting-room" viewBox="0 0 81 90.995"><g><path d="M53.651 61.209a2.14 2.14 0 0 1-1.487.625H32.832c-.284 0-.563.086-.797.246l-10.567 7.238 2.012-5.598a1.406 1.406 0 0 0-.174-1.287 1.407 1.407 0 0 0-1.153-.599h-7.879a2.117 2.117 0 0 1-2.115-2.115V39.452c0-1.166.948-2.115 2.115-2.115h7.631a1.41 1.41 0 0 0 0-2.819h-7.631a4.94 4.94 0 0 0-4.934 4.934v20.267a4.94 4.94 0 0 0 4.934 4.934h5.874l-1.616 4.498c-.688 1.938-.112 2.895.491 3.357.294.224.697.41 1.227.41.563 0 1.268-.21 2.136-.811l10.884-7.455h18.895c1.28 0 2.506-.504 3.449-1.42a1.41 1.41 0 1 0-1.963-2.023z"/><path d="M77.243 19.929L44.258.885c-2.046-1.181-5.469-1.181-7.516 0L3.757 19.929C1.651 21.146 0 24.005 0 26.438v38.089c0 2.433 1.651 5.291 3.757 6.508l32.985 19.044c1.022.59 2.358.916 3.759.916 1.399 0 2.735-.326 3.757-.916l32.983-19.044C79.35 69.818 81 66.96 81 64.526V26.438c0-2.433-1.65-5.292-3.757-6.509zm.938 44.597c0 1.445-1.098 3.344-2.349 4.066L42.847 87.636c-1.184.686-3.509.684-4.693 0L5.168 68.592c-1.251-.722-2.349-2.622-2.349-4.066V26.438c0-1.444 1.098-3.344 2.349-4.066L38.153 3.328c.592-.342 1.447-.538 2.347-.538.898 0 1.754.196 2.346.538l32.985 19.044c1.251.722 2.349 2.622 2.349 4.066v38.088z"/><path d="M68.607 23.949h-37.89a4.94 4.94 0 0 0-4.934 4.934V49.15a4.94 4.94 0 0 0 4.934 4.934H49.6l10.898 7.456c.781.534 1.473.794 2.115.794.675 0 1.275-.302 1.645-.83.497-.706.525-1.694.079-2.931l-1.611-4.49h5.881a4.94 4.94 0 0 0 4.934-4.934V28.883a4.94 4.94 0 0 0-4.934-4.934zm2.115 25.201a2.117 2.117 0 0 1-2.115 2.115h-7.884a1.408 1.408 0 0 0-1.327 1.885l2.007 5.593-10.57-7.233a1.412 1.412 0 0 0-.797-.246H30.717a2.117 2.117 0 0 1-2.115-2.115V28.883c0-1.166.948-2.115 2.115-2.115h37.89c1.167 0 2.115.949 2.115 2.115V49.15z"/><path d="M63.57 31.707H35.152a1.41 1.41 0 0 0 0 2.819H63.57a1.41 1.41 0 0 0 0-2.819zM54.317 38.488H35.152a1.41 1.41 0 0 0 0 2.819h19.165a1.41 1.41 0 0 0 0-2.819z"/></g></symbol><symbol id="offices" viewBox="0 0 81 90.972"><g><path d="M40.499 33.661c4.421 0 8.018-3.597 8.018-8.018s-3.597-8.018-8.018-8.018-8.018 3.597-8.018 8.018 3.597 8.018 8.018 8.018zm0-13.217c2.867 0 5.199 2.333 5.199 5.199s-2.332 5.199-5.199 5.199-5.199-2.333-5.199-5.199 2.332-5.199 5.199-5.199z"/><path d="M77.243 19.93L44.258.886c-2.048-1.18-5.471-1.181-7.516 0L3.755 19.93C1.649 21.147 0 24.005 0 26.438v38.088c0 2.433 1.649 5.291 3.755 6.508l32.987 19.045c1.022.59 2.358.916 3.757.916s2.735-.325 3.759-.916l32.985-19.044C79.35 69.818 81 66.959 81 64.527V26.438c0-2.434-1.65-5.292-3.757-6.508zm-9.877 44.249c-2.332 0-4.229 1.884-4.229 4.2 0 .761-.633 1.38-1.41 1.38h-4.179V57.305h2.733c.009 0 .017.005.026.005H78.18v6.869H67.366zM50.545 47.29h-2.174v-2.556a1.41 1.41 0 0 0-2.82 0v2.556H35.448v-2.556a1.41 1.41 0 0 0-2.82 0v2.556h-2.175v-2.403c0-3.11 2.53-5.64 5.64-5.64h8.812c3.11 0 5.64 2.53 5.64 5.64v2.403zm4.185 2.819v15.465H26.268V50.109H54.73zM26.268 68.393H54.73v1.366H26.268v-1.366zm47.936-26.238h-9.949v-1.523a2.524 2.524 0 0 1 2.52-2.52h4.91a2.524 2.524 0 0 1 2.52 2.52v1.523zm-12.486 2.819h16.463v9.517H64.573c-.009 0-.017-.005-.026-.005h-2.829v-9.512zM5.167 22.372L38.153 3.328c.592-.342 1.447-.539 2.346-.539.9 0 1.755.196 2.347.539l32.987 19.044c1.249.722 2.347 2.621 2.347 4.066v15.717h-1.158v-1.523a5.344 5.344 0 0 0-5.339-5.339h-4.91a5.344 5.344 0 0 0-5.339 5.339v1.523h-1.127a1.41 1.41 0 0 0-1.41 1.41v10.922h-1.349V48.7a1.41 1.41 0 0 0-1.41-1.41h-2.776v-2.403c0-4.664-3.795-8.459-8.459-8.459h-8.812c-4.664 0-8.459 3.795-8.459 8.459v2.403h-2.776a1.41 1.41 0 0 0-1.41 1.41v5.787H22.1V43.565a1.41 1.41 0 0 0-1.41-1.41h-1.127v-1.523a5.344 5.344 0 0 0-5.337-5.339H9.314a5.344 5.344 0 0 0-5.337 5.339v1.523H2.819V26.438c0-1.444 1.096-3.344 2.348-4.066zM15.78 54.486c-.009 0-.016.005-.026.005H2.819v-9.517h16.462v9.512H15.78zm.964-12.331H6.796v-1.523a2.522 2.522 0 0 1 2.518-2.52h4.912a2.522 2.522 0 0 1 2.518 2.52v1.523zm26.104 45.482c-1.184.683-3.507.685-4.695 0l-16.924-9.771h38.542l-16.923 9.771zm32.984-19.044l-11.178 6.454H16.346l-11.18-6.455c-1.251-.722-2.347-2.622-2.347-4.066v-7.215H20.69c.009 0 .016-.005.026-.005h2.733V71.17c0 .779.632 1.41 1.41 1.41h36.869c2.332 0 4.229-1.884 4.229-4.199 0-.762.633-1.381 1.41-1.381h10c-.42.672-.958 1.26-1.535 1.593z"/><path d="M69.23 33.237c2.809 0 5.093-2.285 5.093-5.093s-2.284-5.092-5.093-5.092-5.093 2.284-5.093 5.092 2.284 5.093 5.093 5.093zm0-7.365a2.276 2.276 0 0 1 2.273 2.273 2.276 2.276 0 0 1-2.273 2.273 2.276 2.276 0 0 1-2.273-2.273 2.275 2.275 0 0 1 2.273-2.273zM11.77 33.237c2.809 0 5.093-2.285 5.093-5.093s-2.284-5.092-5.093-5.092-5.093 2.284-5.093 5.092 2.284 5.093 5.093 5.093zm0-7.365a2.276 2.276 0 0 1 2.273 2.273c0 1.254-1.021 2.273-2.273 2.273s-2.273-1.02-2.273-2.273a2.275 2.275 0 0 1 2.273-2.273z"/><circle cx="40.5" cy="56.483" r="2.056"/></g></symbol><symbol id="restroom" viewBox="0 0 81 90.995"><g><path d="M77.243 19.93L44.256.885c-2.045-1.181-5.466-1.181-7.514 0L3.755 19.929C1.649 21.147 0 24.006 0 26.438v38.089c0 2.433 1.649 5.291 3.755 6.508l32.987 19.044c1.022.59 2.358.916 3.757.916 1.401 0 2.735-.326 3.759-.916l32.983-19.044C79.35 69.818 81 66.96 81 64.526V26.438c0-2.433-1.65-5.292-3.757-6.508zm.938 44.596c0 1.445-1.098 3.344-2.349 4.066L42.847 87.636c-1.182.685-3.506.687-4.693 0L5.167 68.592C3.916 67.87 2.82 65.97 2.82 64.526V26.438c0-1.444 1.096-3.344 2.347-4.066L38.153 3.328c.592-.342 1.447-.538 2.346-.538.9 0 1.755.196 2.347.538l32.987 19.045c1.249.722 2.347 2.621 2.347 4.066v38.087z"/><path d="M72.001 39.664h-2.988V29.177a1.41 1.41 0 0 0-1.409-1.409h-53.31a1.41 1.41 0 0 0-1.409 1.409v10.486H8.997a1.41 1.41 0 0 0-1.409 1.41V61.78c0 .779.632 1.41 1.409 1.41h8.555l-1.526 4.77a1.409 1.409 0 1 0 2.684.859l1.762-5.507c.013-.04.017-.081.026-.121h39.78c.009.04.013.081.026.121l1.762 5.507a1.41 1.41 0 1 0 2.684-.859l-1.526-4.77h8.775a1.41 1.41 0 0 0 1.409-1.41V41.073a1.406 1.406 0 0 0-1.407-1.409zm-56.298-9.077h50.491v9.077h-4.767a1.41 1.41 0 0 0-1.41 1.41v3.437H20.981v-3.437a1.41 1.41 0 0 0-1.41-1.41h-3.869v-9.077zm44.314 16.742v6.874H20.981v-6.874h39.036zm-49.61 3.437v-8.283h7.755v11.72H10.407v-3.437zm60.184 9.605H10.407v-3.349h60.184v3.349zm0-9.605v3.437H62.836v-11.72h7.755v8.283z"/></g></symbol></svg>