<?xml version="1.0" encoding="iso-8859-1"?>
<!-- Generator: Adobe Illustrator 19.1.0, SVG Export Plug-In . SVG Version: 6.00 Build 0)  -->
<svg version="1.1" id="Layer_1" xmlns="http://www.w3.org/2000/svg" xmlns:xlink="http://www.w3.org/1999/xlink" x="0px" y="0px"
	 viewBox="0 0 81 90.995" style="enable-background:new 0 0 81 90.995;" xml:space="preserve">
<g>
	<path style="fill:#FFFFFF;stroke:#FFFFFF;stroke-miterlimit:10;" d="M77.243,19.931L44.257,0.886c-2.045-1.181-5.468-1.181-7.516,0
		L3.757,19.93C1.65,21.148,0,24.006,0,26.438v38.088c0,2.433,1.65,5.291,3.757,6.508l32.984,19.044
		c1.024,0.59,2.359,0.916,3.759,0.916c1.399,0,2.735-0.326,3.759-0.916l32.984-19.044C79.35,69.817,81,66.959,81,64.526V26.439
		C81,24.006,79.35,21.148,77.243,19.931z M42.175,87.911c-1.006,0.309-2.343,0.309-3.349,0V77.784h3.349V87.911z M44.025,74.965
		h-7.049c-1.167,0-2.115-0.949-2.115-2.115v-1.757c0.001-0.013,0.008-0.024,0.009-0.038c0.001-0.041-0.006-0.08-0.009-0.12v-6.421
		H46.14v8.335C46.14,74.015,45.191,74.965,44.025,74.965z M35.039,52.444h-6.788v-3.937h6.788c0.778,0,1.409-0.631,1.409-1.409
		s-0.632-1.409-1.409-1.409h-6.788v-3.936h6.788c0.778,0,1.409-0.631,1.409-1.41s-0.632-1.409-1.409-1.409h-6.788v-3.937h4.54h2.248
		h17.709v3.937h-6.788c-0.778,0-1.409,0.631-1.409,1.409s0.632,1.41,1.409,1.41h6.788v3.936h-6.788
		c-0.778,0-1.409,0.631-1.409,1.409s0.632,1.409,1.409,1.409h6.788v3.937h-6.788c-0.778,0-1.409,0.631-1.409,1.409
		s0.632,1.409,1.409,1.409h6.788v0.793c0,3.11-2.53,5.64-5.64,5.64H33.891c-3.11,0-5.64-2.53-5.64-5.64v-0.793h6.788
		c0.778,0,1.409-0.631,1.409-1.409S35.817,52.444,35.039,52.444z M33.743,27.503c0.778,0,1.409-0.631,1.409-1.409l0.002-3.875h3.936
		v3.874c0,0.779,0.632,1.409,1.409,1.409c0.778,0,1.409-0.631,1.409-1.409V22.22h3.938l-0.002,3.873c0,0.779,0.63,1.41,1.409,1.41
		c0.778,0,1.409-0.631,1.409-1.409l0.002-3.651c2.354,0.678,4.082,2.847,4.082,5.416v4.318H35.039h-2.248h-4.54v-4.318
		c0-2.57,1.729-4.739,4.084-5.416l-0.002,3.65C32.334,26.872,32.964,27.503,33.743,27.503z M78.181,64.526
		c0,1.444-1.098,3.344-2.349,4.066L44.994,86.396v-8.711c2.258-0.452,3.965-2.447,3.965-4.836v-0.533
		c8.136-0.928,14.547-7.947,14.547-16.264V44.452c0.778-0.495,1.298-1.36,1.298-2.351c0-1.541-1.249-2.79-2.79-2.79
		s-2.79,1.249-2.79,2.79c0,1.058,0.596,1.967,1.463,2.44v11.511c0,6.778-5.143,12.52-11.729,13.429v-5.177
		c3.776-0.847,6.609-4.22,6.609-8.249V27.859c0-4.665-3.795-8.459-8.459-8.459H33.891c-4.664,0-8.459,3.794-8.459,8.459v28.197
		c0,4.029,2.833,7.402,6.609,8.249v5.179c-6.673-0.896-11.711-6.536-11.711-13.431V44.532c0.858-0.476,1.445-1.38,1.445-2.43
		c0-1.541-1.249-2.79-2.79-2.79c-1.541,0-2.79,1.249-2.79,2.79c0,0.998,0.528,1.867,1.317,2.361v11.591
		c0,8.46,6.28,15.35,14.53,16.265v0.532c0,2.389,1.707,4.384,3.965,4.836v8.711L5.168,68.592c-1.251-0.722-2.349-2.622-2.349-4.066
		V26.438c0-1.443,1.098-3.343,2.349-4.066L38.151,3.329C38.745,2.987,39.6,2.791,40.5,2.791c0.9,0,1.755,0.196,2.347,0.538
		l32.984,19.044c1.251,0.722,2.349,2.622,2.349,4.066V64.526z"/>
</g>
</svg>
