<?xml version="1.0" encoding="iso-8859-1"?>
<!-- Generator: Adobe Illustrator 19.1.0, SVG Export Plug-In . SVG Version: 6.00 Build 0)  -->
<svg version="1.1" id="Layer_1" xmlns="http://www.w3.org/2000/svg" xmlns:xlink="http://www.w3.org/1999/xlink" x="0px" y="0px"
	 viewBox="0 0 81 90.995" style="enable-background:new 0 0 81 90.995;" xml:space="preserve">
<g>
	<path style="fill:#FFFFFF;" d="M53.651,61.209c-0.417,0.403-0.943,0.625-1.487,0.625H32.832c-0.284,0-0.563,0.086-0.797,0.246
		l-10.567,7.238l2.012-5.598c0.155-0.432,0.091-0.912-0.174-1.287c-0.263-0.376-0.694-0.599-1.153-0.599h-7.879
		c-1.167,0-2.115-0.949-2.115-2.115V39.452c0-1.166,0.948-2.115,2.115-2.115h7.631c0.778,0,1.41-0.631,1.41-1.409
		s-0.632-1.41-1.41-1.41h-7.631c-2.721,0-4.934,2.213-4.934,4.934v20.267c0,2.721,2.213,4.934,4.934,4.934h5.874l-1.616,4.498
		c-0.688,1.938-0.112,2.895,0.491,3.357c0.294,0.224,0.697,0.41,1.227,0.41c0.563,0,1.268-0.21,2.136-0.811l10.884-7.455h18.895
		c1.28,0,2.506-0.504,3.449-1.42c0.559-0.542,0.573-1.435,0.031-1.994C55.1,60.682,54.209,60.666,53.651,61.209z"/>
	<path style="fill:#FFFFFF;" d="M77.243,19.929L44.258,0.885c-2.046-1.181-5.469-1.181-7.516,0L3.757,19.929
		C1.651,21.146,0,24.005,0,26.438v38.089c0,2.433,1.651,5.291,3.757,6.508l32.985,19.044c1.022,0.59,2.358,0.916,3.759,0.916
		c1.399,0,2.735-0.326,3.757-0.916l32.983-19.044C79.35,69.818,81,66.96,81,64.526V26.438C81,24.005,79.35,21.146,77.243,19.929z
		 M78.181,64.526c0,1.445-1.098,3.344-2.349,4.066L42.847,87.636c-1.184,0.686-3.509,0.684-4.693,0L5.168,68.592
		c-1.251-0.722-2.349-2.622-2.349-4.066V26.438c0-1.444,1.098-3.344,2.349-4.066L38.153,3.328c0.592-0.342,1.447-0.538,2.347-0.538
		c0.898,0,1.754,0.196,2.346,0.538l32.985,19.044c1.251,0.722,2.349,2.622,2.349,4.066V64.526z"/>
	<path style="fill:#FFFFFF;" d="M68.607,23.949h-37.89c-2.721,0-4.934,2.213-4.934,4.934V49.15c0,2.721,2.213,4.934,4.934,4.934
		H49.6l10.898,7.456c0.781,0.534,1.473,0.794,2.115,0.794c0.675,0,1.275-0.302,1.645-0.83c0.497-0.706,0.525-1.694,0.079-2.931
		l-1.611-4.49h5.881c2.721,0,4.934-2.213,4.934-4.934V28.883C73.541,26.162,71.328,23.949,68.607,23.949z M70.722,49.15
		c0,1.166-0.948,2.115-2.115,2.115h-7.884c-0.459,0-0.89,0.223-1.153,0.598s-0.329,0.855-0.174,1.287l2.007,5.593l-10.57-7.233
		c-0.236-0.161-0.513-0.246-0.797-0.246H30.717c-1.167,0-2.115-0.949-2.115-2.115V28.883c0-1.166,0.948-2.115,2.115-2.115h37.89
		c1.167,0,2.115,0.949,2.115,2.115V49.15z"/>
	<path style="fill:#FFFFFF;" d="M63.57,31.707H35.152c-0.778,0-1.409,0.631-1.409,1.41c0,0.779,0.632,1.409,1.409,1.409H63.57
		c0.778,0,1.409-0.631,1.409-1.409C64.979,32.338,64.347,31.707,63.57,31.707z"/>
	<path style="fill:#FFFFFF;" d="M54.317,38.488H35.152c-0.778,0-1.409,0.631-1.409,1.41s0.632,1.409,1.409,1.409h19.165
		c0.778,0,1.41-0.631,1.41-1.409S55.095,38.488,54.317,38.488z"/>
</g>
</svg>
