<svg width="88" height="34" viewBox="57 4 88 34" xmlns="http://www.w3.org/2000/svg"><g fill="none" fill-rule="evenodd"><path d="M59.552 28.105c0 2.594.46 4.514 1.38 5.764.921 1.25 2.152 1.874 3.693 1.874 1.314 0 2.616-.306 3.903-.915l.564 1.366a10.51 10.51 0 0 1-4.58 1.043c-.968 0-1.856-.184-2.664-.55-.808-.366-1.519-.914-2.134-1.642-.616-.727-1.098-1.686-1.445-2.875-.347-1.188-.521-2.557-.521-4.107 0-3.288.533-5.66 1.599-7.116 1.066-1.457 2.731-2.185 4.996-2.185 1.474 0 2.93.353 4.368 1.058v3.41h-1.536v-2.439c-.808-.356-1.701-.536-2.677-.536-.846 0-1.556.112-2.128.332-.573.221-1.083.616-1.529 1.184-.447.568-.773 1.374-.98 2.416-.206 1.043-.309 2.35-.309 3.918m16.509-7.693v-1.411h11.57v1.411h-4.918v16.683h-1.804V20.412h-4.848m28.744 16.683l-1.367-4.621h-7.144l-1.409 4.621h-1.959l5.636-18.094h2.692l5.384 18.094h-1.833zm-1.803-5.918l-3.087-10.625-3.198 10.625h6.285zm17.185-12.176c.958 0 1.784.085 2.474.254a4.99 4.99 0 0 1 1.832.853c.53.399.93.951 1.197 1.655.268.705.402 1.565.402 2.58 0 .855-.108 1.59-.325 2.205-.215.616-.518 1.116-.908 1.5-.39.386-.907.69-1.551.91a9.758 9.758 0 0 1-2.071.458c-.737.083-1.623.126-2.656.126h-1.508v7.553h-1.804V19.001h4.918zm-3.114 9.077h1.184c.986 0 1.728-.015 2.226-.043a11.264 11.264 0 0 0 1.628-.226c.587-.122 1.008-.314 1.261-.577.254-.264.47-.627.648-1.093.179-.465.268-1.054.268-1.768 0-1.512-.315-2.551-.944-3.115-.629-.563-1.644-.844-3.043-.844h-3.228v7.666zm15.031-7.666v-1.411h11.57v1.411h-4.918v16.683h-1.804V20.412h-4.848" fill="#FFF"/><path d="M60.196 4.552a.708.708 0 0 1 .252-.23.654.654 0 0 1 .328-.088h.998l-.888 1.537a1.434 1.434 0 0 1-.207.277.735.735 0 0 1-.258.164.872.872 0 0 1 .338.196c.088.084.166.19.232.318l.887 1.737h-.873c-.112 0-.209-.008-.293-.026a.836.836 0 0 1-.221-.08.655.655 0 0 1-.172-.13 1.057 1.057 0 0 1-.135-.18l-.449-1.064a.423.423 0 0 0-.178-.21.514.514 0 0 0-.265-.067h-.319v1.757H57.71V4.234h1.263V5.91h.26a.473.473 0 0 0 .256-.055.462.462 0 0 0 .149-.186l.558-1.117m8.83-.383c.321 0 .613.05.877.151.264.1.49.244.68.431.187.188.336.416.439.684.106.268.158.568.158.903 0 .337-.052.642-.158.911a1.952 1.952 0 0 1-.439.69c-.19.189-.416.335-.68.436a2.393 2.393 0 0 1-.877.154c-.324 0-.617-.051-.883-.154a1.909 1.909 0 0 1-1.129-1.126 2.494 2.494 0 0 1-.158-.911c0-.335.053-.635.158-.903a1.91 1.91 0 0 1 .444-.684c.191-.187.42-.331.685-.431.266-.101.559-.151.883-.151zm0 3.422c.291 0 .506-.103.643-.308.136-.205.205-.518.205-.936 0-.419-.069-.73-.205-.934-.137-.205-.352-.306-.643-.306-.299 0-.517.101-.656.306-.139.204-.209.515-.209.934 0 .418.07.731.209.936.139.205.357.308.656.308zm9.453-3.357c.272 0 .51.025.711.078.201.051.367.123.498.216a.897.897 0 0 1 .295.328.917.917 0 0 1 .096.414c0 .093-.012.187-.035.283a.888.888 0 0 1-.356.519 1.183 1.183 0 0 1-.381.173c.129.03.247.072.358.126.109.054.205.121.285.2.08.079.143.171.188.275a.916.916 0 0 1 .068.357 1.102 1.102 0 0 1-.522.966 1.687 1.687 0 0 1-.533.223 2.68 2.68 0 0 1-.615.071H76.71V4.234h1.769zm-.57.791v.934h.533a.528.528 0 0 0 .381-.141.476.476 0 0 0 .147-.36.477.477 0 0 0-.026-.156.327.327 0 0 0-.086-.138.423.423 0 0 0-.162-.1.737.737 0 0 0-.254-.039h-.533zm.619 2.606a.531.531 0 0 0 .375-.128.448.448 0 0 0 .139-.349.787.787 0 0 0-.018-.171.298.298 0 0 0-.074-.143.347.347 0 0 0-.156-.096.848.848 0 0 0-.266-.035h-.619v.922h.619zm9.17-3.462c.32 0 .613.05.877.151.264.1.488.244.678.431.189.188.336.416.441.684.104.268.156.568.156.903 0 .337-.052.642-.156.911a1.956 1.956 0 0 1-.441.69 1.92 1.92 0 0 1-.678.436 2.397 2.397 0 0 1-.877.154c-.324 0-.619-.051-.883-.154a1.95 1.95 0 0 1-.685-.436 1.94 1.94 0 0 1-.446-.69 2.537 2.537 0 0 1-.156-.911c0-.335.053-.635.156-.903.106-.268.254-.496.446-.684.191-.187.42-.331.685-.431.264-.101.559-.151.883-.151zm0 3.422c.291 0 .504-.103.643-.308.136-.205.205-.518.205-.936 0-.419-.069-.73-.205-.934-.139-.205-.352-.306-.643-.306-.301 0-.519.101-.658.306-.139.204-.207.515-.207.934 0 .418.068.731.207.936.139.205.357.308.658.308zm8.869-2.835c.166-.176.354-.321.565-.434.211-.114.463-.17.754-.17a1.318 1.318 0 0 1 1.095.572c.137.184.244.41.32.678.079.268.118.572.118.912 0 .318-.045.611-.133.881a2.21 2.21 0 0 1-.371.701 1.633 1.633 0 0 1-1.307.633c-.22 0-.406-.031-.554-.094a1.436 1.436 0 0 1-.409-.253v1.623h-1.263V4.234h.781c.158 0 .262.07.31.213l.094.309zm.078 2.558a.856.856 0 0 0 .66.285.735.735 0 0 0 .323-.07.653.653 0 0 0 .256-.222 1.23 1.23 0 0 0 .168-.397c.041-.163.062-.362.062-.596 0-.223-.017-.41-.051-.563a1.186 1.186 0 0 0-.134-.369.54.54 0 0 0-.211-.202.613.613 0 0 0-.274-.061.926.926 0 0 0-.457.102 1.26 1.26 0 0 0-.342.298v1.795zm10.803-2.762a.708.708 0 0 1 .252-.23.654.654 0 0 1 .328-.088h.998l-.888 1.537a1.395 1.395 0 0 1-.208.277.722.722 0 0 1-.257.164.872.872 0 0 1 .338.196c.087.084.166.19.232.318l.887 1.737h-.873c-.112 0-.209-.008-.293-.026a.836.836 0 0 1-.221-.08.655.655 0 0 1-.172-.13 1.057 1.057 0 0 1-.135-.18l-.449-1.064a.423.423 0 0 0-.178-.21.514.514 0 0 0-.265-.067h-.319v1.757h-1.263V4.234h1.263V5.91h.26a.473.473 0 0 0 .256-.055.46.46 0 0 0 .148-.186l.559-1.117m10.986-.318v4.229h-1.263V6.31c0-.07.004-.147.011-.23.01-.083.02-.168.034-.255a2.106 2.106 0 0 1-.276.468l-.15.231-.209.316a312.712 312.712 0 0 0-.879 1.326 1.187 1.187 0 0 1-.082.108.66.66 0 0 1-.227.167.38.38 0 0 1-.138.026h-.776V4.238h1.264v2.154c0 .067-.004.144-.012.229-.008.084-.019.17-.033.255.066-.146.135-.269.209-.371a1.41 1.41 0 0 1 .065-.097l.154-.231c.06-.094.129-.199.207-.316l.238-.359c.192-.286.404-.607.641-.965.025-.036.052-.073.084-.11a.726.726 0 0 1 .103-.097.532.532 0 0 1 .123-.069.378.378 0 0 1 .139-.027h.773m9.586 0v4.229h-1.263V6.677h-1.307v1.786h-1.264V4.234h1.264v1.537h1.307V4.234h1.263m8.727.906h-1.713v3.323h-1.264V4.234h2.977v.906" fill="#FFA601"/></g></svg>