<?xml version="1.0" encoding="iso-8859-1"?>
<!-- Generator: Adobe Illustrator 19.1.0, SVG Export Plug-In . SVG Version: 6.00 Build 0)  -->
<svg version="1.1" id="Layer_1" xmlns="http://www.w3.org/2000/svg" xmlns:xlink="http://www.w3.org/1999/xlink" x="0px" y="0px"
	 viewBox="0 0 81 90.995" style="enable-background:new 0 0 81 90.995;" xml:space="preserve">
<g>
	<path style="fill:#FFFFFF;" d="M77.245,19.929L44.258,0.886c-2.045-1.181-5.468-1.181-7.516,0L3.757,19.929
		C1.65,21.146,0,24.005,0,26.438v38.089c0,2.433,1.65,5.291,3.757,6.508l32.985,19.044c1.024,0.59,2.358,0.916,3.759,0.916
		c1.399,0,2.735-0.326,3.757-0.916l32.987-19.044C79.351,69.818,81,66.959,81,64.526V26.438C81,24.006,79.351,21.147,77.245,19.929z
		 M78.181,64.526c0,1.444-1.096,3.344-2.347,4.066L42.847,87.636c-1.186,0.686-3.511,0.684-4.693,0L5.168,68.592
		c-1.251-0.722-2.349-2.622-2.349-4.066V26.438c0-1.444,1.098-3.344,2.349-4.066L38.152,3.328c0.594-0.342,1.449-0.538,2.349-0.538
		c0.898,0,1.754,0.196,2.346,0.538l32.987,19.044c1.251,0.722,2.347,2.622,2.347,4.066V64.526z"/>
	<path style="fill:#FFFFFF;" d="M36.522,22.469c1.752,0,2.773,0.615,2.886,0.777v2.187c0,0.779,0.632,1.41,1.409,1.41
		c0.778,0,1.41-0.631,1.41-1.41v-2.187c0-2.051-2.452-3.596-5.705-3.596c-1.537,0-2.886-0.913-2.886-1.954
		c0-1.04,1.349-1.953,2.886-1.953c3.253,0,5.705-1.582,5.705-3.68v-2.27c0-0.779-0.632-1.409-1.41-1.409
		c-0.778,0-1.409,0.631-1.409,1.409l0.009,2.213c-0.11,0.262-1.132,0.918-2.895,0.918c-3.146,0-5.705,2.141-5.705,4.772
		C30.817,20.328,33.376,22.469,36.522,22.469z"/>
	<path style="fill:#FFFFFF;" d="M71.052,34.377h-9.82c0.034-1.754,0.052-2.943,0.055-3.116c0.005-0.378-0.139-0.742-0.404-1.011
		c-0.265-0.268-0.628-0.42-1.005-0.42H19.592c-0.377,0-0.74,0.151-1.005,0.42c-0.265,0.269-0.41,0.633-0.404,1.011
		c0.01,0.67,0.253,16.487,0.745,22.271c0.295,3.387,2.195,6.935,3.935,9.545h-9.389c-0.534,0-1.021,0.301-1.26,0.778
		s-0.189,1.048,0.131,1.476c1.943,2.6,4.339,4.889,7.12,6.802c0.234,0.162,0.513,0.248,0.799,0.248h38.933
		c0.286,0,0.565-0.086,0.799-0.248c2.785-1.916,5.18-4.205,7.118-6.802c0.32-0.428,0.37-0.998,0.131-1.475
		c-0.239-0.478-0.726-0.778-1.26-0.778h-9.39c1.67-2.505,3.242-5.52,3.767-8.489c0.061,0.001,0.122,0.011,0.183,0.011
		c6.583,0,11.818-6.03,11.918-13.728c0-0.003-0.002-0.006-0.002-0.009c0-0.003,0.002-0.006,0.002-0.009v-5.067
		C72.462,35.007,71.83,34.377,71.052,34.377z M62.965,65.895c-1.256,1.34-2.666,2.565-4.213,3.665H20.707
		c-1.547-1.098-2.957-2.324-4.213-3.665h37.301c0.018,0.001,0.035,0.009,0.053,0.009c0.013,0,0.025-0.008,0.038-0.009H62.965z
		 M57.716,53.287c-0.304,3.491-2.828,7.436-4.567,9.789H26.317c-1.533-2.058-4.266-6.179-4.581-9.787
		c-0.399-4.684-0.637-16.529-0.711-20.641h9.46v5.473H27.38c-0.778,0-1.409,0.631-1.409,1.41v12.997
		c0,0.779,0.632,1.409,1.409,1.409h9.032c0.778,0,1.41-0.631,1.41-1.409V39.531c0-0.779-0.632-1.41-1.41-1.41h-3.106v-5.473h25.139
		C58.37,36.761,58.129,48.604,57.716,53.287z M35.002,40.941v10.178h-6.213V40.941H35.002z M60.653,51.767
		c0.162-2.577,0.293-6.092,0.391-9.505h8.504C68.908,47.581,65.146,51.7,60.653,51.767z M69.643,39.443H61.12
		c0.019-0.777,0.038-1.534,0.054-2.248h8.47V39.443z"/>
</g>
</svg>
