<svg width="21" height="25" viewBox="0 0 21 20" xmlns="http://www.w3.org/2000/svg"><path d="M4.466 7.429h-.752v5.195h.012v5.45c0 .416.331.754.74.754h1.581v3.354c0 .74.59 1.342 1.317 1.342a1.33 1.33 0 0 0 1.316-1.342v-3.354h2.449v3.354c0 .74.59 1.342 1.317 1.342a1.33 1.33 0 0 0 1.316-1.342v-3.354h1.582c.408 0 .74-.338.74-.754v-5.45h.011V7.43H4.465m14.106-.001c-.683 0-1.238.597-1.238 1.334v5.998c0 .737.555 1.334 1.238 1.334.684 0 1.239-.597 1.239-1.334V8.763c0-.737-.555-1.334-1.239-1.334m-17.333 0C.554 7.429 0 8.026 0 8.763v5.998c0 .737.554 1.334 1.238 1.334.684 0 1.238-.597 1.238-1.334V8.763c0-.737-.554-1.334-1.238-1.334m11.678-5.793L13.983.17c.022-.03-.01-.09-.072-.132-.06-.042-.129-.052-.15-.021L12.658 1.53c-.745-.283-1.653-.459-2.755-.462-1.108-.004-2.018.166-2.765.448L6.048.018c-.022-.03-.09-.02-.15.021-.062.043-.094.102-.072.132l1.053 1.446C3.802 2.94 3.714 6.19 3.714 6.19h12.381s-.123-3.22-3.18-4.554zM6.809 4.952a.62.62 0 1 1 .002-1.238.62.62 0 0 1-.002 1.238zm6.19 0a.618.618 0 1 1 0-1.236.618.618 0 0 1 0 1.236z"/></svg>