<svg width="21" height="25" viewBox="0 0 21 25" xmlns="http://www.w3.org/2000/svg"><path d="M13.57 4.289C15.16 2.185 14.83 0 14.83 0s-2.224.011-3.823 2.335C9.584 4.4 9.946 6.168 9.946 6.168s1.928.368 3.625-1.879"/><path d="M16.536 13.269c0-3.28 2.628-4.633 2.628-4.633S17.82 6.19 14.404 6.19c-1.984 0-3.508 1.137-4.33 1.137-.956 0-2.384-1.068-4.225-1.068C3.02 6.259 0 8.809 0 13.672c0 4.942 3.566 11.09 6.388 11.09.986 0 2.498-.999 4.023-.999 1.496 0 2.6.963 4.02.963 3.09 0 5.379-6.481 5.379-6.481s-3.274-1.276-3.274-4.976"/></svg>