<svg width="48px" height="53px" viewBox="1003 0 48 53" version="1.1" xmlns="http://www.w3.org/2000/svg" xmlns:xlink="http://www.w3.org/1999/xlink">
    <g id="coworking" stroke="none" stroke-width="1" fill="none" fill-rule="evenodd" transform="translate(1003.000000, 0.000000)">
        <path d="M47.0333166,37.1533346 L47.0333166,35.3224775 C47.0396994,35.2807632 47.0571068,35.2430489 47.0571068,35.1996203 C47.0571068,35.1601917 47.0391191,35.1264775 47.0333166,35.0881917 L47.0333166,15.3990489 C47.0333166,14.0104775 46.0759092,12.377906 44.8544895,11.681906 L25.7237487,0.805334603 C24.5377241,0.131048888 22.5526994,0.131048888 21.3649339,0.805334603 L2.23477344,11.681906 C1.01335368,12.3773346 0.0571067698,14.0104775 0.0571067698,15.3990489 L0.0571067698,37.1533346 C0.0571067698,38.5424775 1.01335368,40.1750489 2.23477344,40.869906 L21.3649339,51.7470489 C21.9585265,52.0841917 22.7331562,52.2704775 23.5449216,52.2704775 C24.3561068,52.2704775 25.1307364,52.0841917 25.724329,51.7470489 L44.8544895,40.869906 C45.4747734,40.5173346 46.0254278,39.9213346 46.4182549,39.2396203 C46.4269586,39.221906 46.4374031,39.2064775 46.4449463,39.1881917 C46.8087611,38.5401917 47.0333166,37.8196203 47.0333166,37.1533346 L47.0333166,37.1533346 Z M25.2665142,38.0881917 L25.2665142,36.0047632 L45.3981808,36.0047632 L45.3981808,37.1533346 C45.3981808,37.445906 45.3152055,37.7716203 45.1788475,38.0881917 L25.2665142,38.0881917 L25.2665142,38.0881917 Z M22.1836623,50.3521917 L3.05350183,39.4750489 C2.32819319,39.0630489 1.69224257,37.977906 1.69224257,37.1533346 L1.69224257,15.3990489 C1.69224257,14.5744775 2.32819319,13.4893346 3.05350183,13.0767632 L22.1825018,2.20019175 C22.5265883,2.0053346 23.0226994,1.89276317 23.5449216,1.89276317 C24.0665636,1.89276317 24.5626747,2.0053346 24.9061808,2.20019175 L44.0357611,13.0767632 C44.76165,13.489906 45.3981808,14.5750489 45.3981808,15.3990489 L45.3981808,34.3944775 L24.4489463,34.3944775 C23.9980944,34.3944775 23.6313784,34.7544775 23.6313784,35.1996203 L23.6313784,38.8933346 C23.6313784,39.337906 23.9980944,39.6984775 24.4489463,39.6984775 L43.6435142,39.6984775 L26.664329,49.3527632 L26.5877364,45.2944775 C26.5593043,43.753906 25.261292,42.4876203 23.6952055,42.4716203 L15.2346253,42.3870489 C14.9392796,42.3836203 14.6897734,42.277906 14.533687,42.0893346 C14.3781808,41.9007632 14.3230574,41.6384775 14.3810821,41.3527632 L15.1638352,37.4561917 C15.250292,37.0201917 14.9630697,36.5961917 14.5197611,36.5104775 C14.0747117,36.4184775 13.64765,36.7070489 13.558292,37.1436203 L12.7761191,41.0407632 C12.6252549,41.793906 12.8033907,42.5470489 13.2652673,43.105906 C13.7259833,43.6641917 14.4379463,43.9887632 15.2183784,43.9967632 L23.6795389,44.081906 C24.3572673,44.0887632 24.9404154,44.657906 24.9531808,45.3247632 L25.0419586,50.057906 C25.0431191,50.1264775 25.0669092,50.1870489 25.0843166,50.2504775 L24.9061808,50.3521917 C24.2197487,50.7430489 22.8700944,50.7430489 22.1836623,50.3521917 L22.1836623,50.3521917 Z" id="Fill-1" fill="#FFFFFF"/>
        <path d="M15.9210574,21.005906 C18.4097364,21.005906 20.4336376,19.0121917 20.4336376,16.5607632 C20.4336376,14.109906 18.4097364,12.1167632 15.9210574,12.1167632 C13.4317981,12.1167632 11.4078969,14.109906 11.4078969,16.5607632 C11.4078969,19.0121917 13.4317981,21.005906 15.9210574,21.005906 L15.9210574,21.005906 Z M15.9210574,13.7264775 C17.5080327,13.7264775 18.7985018,14.997906 18.7985018,16.5607632 C18.7985018,18.1236203 17.5080327,19.3956203 15.9210574,19.3956203 C14.3340821,19.3956203 13.0424524,18.1236203 13.0424524,16.5607632 C13.0424524,14.997906 14.3340821,13.7264775 15.9210574,13.7264775 L15.9210574,13.7264775 Z" id="Fill-2" fill="#FFFFFF"/>
        <path d="M24.453008,31.4624775 C24.0021562,31.4624775 23.6354401,31.8224775 23.6354401,32.2676203 C23.6354401,32.7121917 24.0021562,33.0721917 24.453008,33.0721917 L36.4182796,33.0721917 L36.4206006,33.0727632 C36.5186623,33.0727632 36.6132426,33.0493346 36.7037611,33.0161917 C36.729292,33.0070489 36.7519216,32.9961917 36.776292,32.9847632 C36.8441808,32.9521917 36.9062673,32.9110489 36.9637117,32.8601917 C36.9782179,32.8470489 36.9944648,32.837906 37.0078105,32.8236203 C37.0681562,32.761906 37.1215389,32.6927632 37.1609957,32.6116203 L43.0789339,20.2813346 C43.2715759,19.8796203 43.0963413,19.3996203 42.6884278,19.2093346 L39.9902796,17.9510489 C39.7935759,17.8601917 39.5696006,17.8481917 39.3647734,17.9207632 C39.1611068,17.9927632 38.9945759,18.1413346 38.9017364,18.3344775 L32.5921315,31.4624775 L24.453008,31.4624775 L24.453008,31.4624775 Z M40.0297364,19.7516203 L41.2511562,20.3207632 L35.9030204,31.4624775 L34.4007611,31.4624775 L40.0297364,19.7516203 L40.0297364,19.7516203 Z" id="Fill-3" fill="#FFFFFF"/>
        <path d="M16.2483166,23.9744775 C16.5407611,23.9744775 16.7856253,24.0750489 16.935329,24.2567632 C17.0850327,24.4384775 17.1349339,24.693906 17.0751685,24.9756203 L16.6266376,27.0904775 C16.5349586,27.525906 16.8186994,27.9527632 17.2608475,28.0436203 C17.6937117,28.1327632 18.1346994,27.8556203 18.2281191,27.4201917 L18.6760697,25.3053346 C18.8356376,24.5504775 18.6638845,23.797906 18.2037487,23.2407632 C17.7447734,22.6841917 17.0322302,22.3647632 16.2483166,22.3647632 L13.5484278,22.3647632 C12.0444278,22.3647632 10.581045,23.4904775 10.2160697,24.9276203 L6.6226006,39.0893346 C6.51409442,39.5207632 6.77926726,39.957906 7.21793393,40.065906 C7.28466233,40.0824775 7.35139072,40.089906 7.41753887,40.089906 C7.78367467,40.089906 8.1167364,39.845906 8.21015615,39.4796203 L11.803045,25.317906 C11.9846623,24.6024775 12.7999092,23.9744775 13.5484278,23.9744775 L16.2483166,23.9744775" id="Fill-4" fill="#FFFFFF"/>
        <path d="M16.3492796,33.3441917 C15.9622549,33.1853346 15.6936006,32.6653346 15.614687,31.9184775 L15.0176129,26.2841917 C14.9706129,25.8424775 14.5766253,25.5213346 14.1193907,25.5664775 C13.6702796,25.6127632 13.3441808,26.0087632 13.3911808,26.4510489 L13.9876747,32.0853346 C14.1333166,33.457906 14.7495389,34.4333346 15.7226129,34.8310489 C16.0196994,34.9533346 16.3341932,35.013906 16.6568105,35.013906 C17.3873413,35.013906 18.1648722,34.7053346 18.9215142,34.1047632 L23.8594154,30.1790489 L27.232971,30.1790489 C27.6838228,30.1790489 28.0499586,29.8190489 28.0499586,29.373906 C28.0499586,28.9293346 27.6838228,28.5687632 27.232971,28.5687632 L23.5698722,28.5687632 C23.5338969,28.5687632 23.5037241,28.5847632 23.4689092,28.5887632 C23.4108845,28.5961917 23.3551808,28.6030489 23.2988969,28.6230489 C23.2460944,28.6413346 23.2008352,28.6687632 23.1538352,28.6973346 C23.1219216,28.7161917 23.085366,28.7236203 23.0557734,28.7476203 L17.8933166,32.8510489 C17.3014648,33.321906 16.740366,33.5036203 16.3492796,33.3441917" id="Fill-5" fill="#FFFFFF"/>
    </g>
</svg>