<?xml version="1.0" encoding="iso-8859-1"?>
<!-- Generator: Adobe Illustrator 19.1.0, SVG Export Plug-In . SVG Version: 6.00 Build 0)  -->
<svg version="1.1" id="Layer_1" xmlns="http://www.w3.org/2000/svg" xmlns:xlink="http://www.w3.org/1999/xlink" x="0px" y="0px"
	 viewBox="0 0 81 90.972" style="enable-background:new 0 0 81 90.972;" xml:space="preserve">
<g>
	<path style="fill:#FFFFFF;" d="M40.499,33.661c4.421,0,8.018-3.597,8.018-8.018s-3.597-8.018-8.018-8.018s-8.018,3.597-8.018,8.018
		S36.078,33.661,40.499,33.661z M40.499,20.444c2.867,0,5.199,2.333,5.199,5.199s-2.332,5.199-5.199,5.199
		c-2.867,0-5.199-2.333-5.199-5.199S37.632,20.444,40.499,20.444z"/>
	<path style="fill:#FFFFFF;" d="M77.243,19.93L44.258,0.886c-2.048-1.18-5.471-1.181-7.516,0L3.755,19.93
		C1.649,21.147,0,24.005,0,26.438v38.088c0,2.433,1.649,5.291,3.755,6.508l32.987,19.045c1.022,0.59,2.358,0.916,3.757,0.916
		s2.735-0.325,3.759-0.916l32.985-19.044C79.35,69.818,81,66.959,81,64.527V26.438C81,24.004,79.35,21.146,77.243,19.93z
		 M67.366,64.179c-2.332,0-4.229,1.884-4.229,4.2c0,0.761-0.633,1.38-1.41,1.38h-4.179V57.305h2.733
		c0.009,0,0.017,0.005,0.026,0.005h17.873v6.869H67.366z M50.545,47.29h-2.174v-2.556c0-0.779-0.632-1.41-1.41-1.41
		c-0.778,0-1.41,0.631-1.41,1.41v2.556H35.448v-2.556c0-0.779-0.632-1.41-1.41-1.41c-0.778,0-1.41,0.631-1.41,1.41v2.556h-2.175
		v-2.403c0-3.11,2.53-5.64,5.64-5.64h8.812c3.11,0,5.64,2.53,5.64,5.64V47.29z M54.73,50.109v15.465H26.268V50.109H54.73z
		 M26.268,68.393H54.73v1.366H26.268V68.393z M74.204,42.155h-9.949v-1.523c0-1.389,1.131-2.52,2.52-2.52h4.91
		c1.389,0,2.52,1.131,2.52,2.52V42.155z M61.718,44.974h16.463v9.517H64.573c-0.009,0-0.017-0.005-0.026-0.005h-2.829V44.974z
		 M5.167,22.372L38.153,3.328c0.592-0.342,1.447-0.539,2.346-0.539c0.9,0,1.755,0.196,2.347,0.539l32.987,19.044
		c1.249,0.722,2.347,2.621,2.347,4.066v15.717h-1.158v-1.523c0-2.944-2.394-5.339-5.339-5.339h-4.91
		c-2.945,0-5.339,2.395-5.339,5.339v1.523h-1.127c-0.778,0-1.41,0.631-1.41,1.41v10.922h-1.349v-5.787c0-0.779-0.632-1.41-1.41-1.41
		h-2.776v-2.403c0-4.664-3.795-8.459-8.459-8.459h-8.812c-4.664,0-8.459,3.795-8.459,8.459v2.403h-2.776
		c-0.778,0-1.41,0.631-1.41,1.41v5.787H22.1V43.565c0-0.779-0.632-1.41-1.41-1.41h-1.127v-1.523c0-2.944-2.394-5.339-5.337-5.339
		H9.314c-2.943,0-5.337,2.395-5.337,5.339v1.523H2.819V26.438C2.819,24.994,3.915,23.094,5.167,22.372z M15.78,54.486
		c-0.009,0-0.016,0.005-0.026,0.005H2.819v-9.517h16.462v9.512H15.78z M16.744,42.155H6.796v-1.523c0-1.389,1.129-2.52,2.518-2.52
		h4.912c1.389,0,2.518,1.131,2.518,2.52V42.155z M42.848,87.637c-1.184,0.683-3.507,0.685-4.695,0l-16.924-9.771h38.542
		L42.848,87.637z M75.832,68.593l-11.178,6.454H16.346l-11.18-6.455c-1.251-0.722-2.347-2.622-2.347-4.066v-7.215H20.69
		c0.009,0,0.016-0.005,0.026-0.005h2.733v13.864c0,0.779,0.632,1.41,1.41,1.41h30.29h0.991h5.588c2.332,0,4.229-1.884,4.229-4.199
		c0-0.762,0.633-1.381,1.41-1.381h10C76.947,67.672,76.409,68.26,75.832,68.593z"/>
	<path style="fill:#FFFFFF;" d="M69.23,33.237c2.809,0,5.093-2.285,5.093-5.093s-2.284-5.092-5.093-5.092
		c-2.809,0-5.093,2.284-5.093,5.092S66.421,33.237,69.23,33.237z M69.23,25.872c1.253,0,2.273,1.02,2.273,2.273
		c0,1.254-1.021,2.273-2.273,2.273c-1.253,0-2.273-1.02-2.273-2.273C66.956,26.891,67.977,25.872,69.23,25.872z"/>
	<path style="fill:#FFFFFF;" d="M11.77,33.237c2.809,0,5.093-2.285,5.093-5.093s-2.284-5.092-5.093-5.092s-5.093,2.284-5.093,5.092
		S8.961,33.237,11.77,33.237z M11.77,25.872c1.253,0,2.273,1.02,2.273,2.273c0,1.254-1.021,2.273-2.273,2.273
		s-2.273-1.02-2.273-2.273C9.497,26.891,10.517,25.872,11.77,25.872z"/>
	<circle style="fill:#FFFFFF;" cx="40.5" cy="56.483" r="2.056"/>
</g>
</svg>
