<?xml version="1.0" encoding="UTF-8"?><!DOCTYPE svg PUBLIC "-//W3C//DTD SVG 1.1//EN" "http://www.w3.org/Graphics/SVG/1.1/DTD/svg11.dtd"><svg xmlns="http://www.w3.org/2000/svg" class="_hide"><symbol id="android" viewBox="0 0 21 20"><path d="M4.466 7.429h-.752v5.195h.012v5.45c0 .416.331.754.74.754h1.581v3.354c0 .74.59 1.342 1.317 1.342a1.33 1.33 0 0 0 1.316-1.342v-3.354h2.449v3.354c0 .74.59 1.342 1.317 1.342a1.33 1.33 0 0 0 1.316-1.342v-3.354h1.582c.408 0 .74-.338.74-.754v-5.45h.011V7.43H4.465M18.571 7.429c-.683 0-1.238.597-1.238 1.334v5.998c0 .737.555 1.334 1.238 1.334.684 0 1.239-.597 1.239-1.334V8.763c0-.737-.555-1.334-1.239-1.334M1.238 7.429C.554 7.429 0 8.026 0 8.763v5.998c0 .737.554 1.334 1.238 1.334.684 0 1.238-.597 1.238-1.334V8.763c0-.737-.554-1.334-1.238-1.334M12.916 1.636L13.983.17c.022-.03-.01-.09-.072-.132-.06-.042-.129-.052-.15-.021L12.658 1.53c-.745-.283-1.653-.459-2.755-.462-1.108-.004-2.018.166-2.765.448L6.048.018c-.022-.03-.09-.02-.15.021-.062.043-.094.102-.072.132l1.053 1.446C3.802 2.94 3.714 6.19 3.714 6.19h12.381s-.123-3.22-3.18-4.554zM6.809 4.952a.62.62 0 1 1 .002-1.238.62.62 0 0 1-.002 1.238zm6.19 0a.618.618 0 1 1 0-1.236.618.618 0 0 1 0 1.236z"/></symbol><symbol id="apple" viewBox="0 0 21 25"><path d="M13.57 4.289C15.16 2.185 14.83 0 14.83 0s-2.224.011-3.823 2.335C9.584 4.4 9.946 6.168 9.946 6.168s1.928.368 3.625-1.879"/><path d="M16.536 13.269c0-3.28 2.628-4.633 2.628-4.633S17.82 6.19 14.404 6.19c-1.984 0-3.508 1.137-4.33 1.137-.956 0-2.384-1.068-4.225-1.068C3.02 6.259 0 8.809 0 13.672c0 4.942 3.566 11.09 6.388 11.09.986 0 2.498-.999 4.023-.999 1.496 0 2.6.963 4.02.963 3.09 0 5.379-6.481 5.379-6.481s-3.274-1.276-3.274-4.976"/></symbol></svg>