<svg width="30px" height="31px" viewBox="535 0 30 31" version="1.1" xmlns="http://www.w3.org/2000/svg" xmlns:xlink="http://www.w3.org/1999/xlink">
        <path d="M14.2857143,0.5 C22.1714286,0.5 28.5714286,6.9 28.5714286,14.7857143 C28.5714286,22.6714286 22.1714286,29.0714286 14.2857143,29.0714286 C6.4,29.0714286 0,22.6714286 0,14.7857143 C0,6.9 6.4,0.5 14.2857143,0.5 M21.7714286,17.6857143 C20.0857143,16.1285714 20.3142857,16.3714286 22.3428571,13.6714286 C23.5714286,12.0285714 24.0714286,11.0285714 23.9142857,10.6 C23.7571429,10.2 22.8571429,10.3 22.8571429,10.3 L19.8428571,10.3285714 C19.8428571,10.3285714 19.6142857,10.2857143 19.4571429,10.3857143 C19.2857143,10.5 19.1857143,10.7142857 19.1857143,10.7142857 C19.1857143,10.7142857 18.7,11.9857143 18.0714286,13.0714286 C16.7285714,15.3428571 16.1857143,15.4571429 15.9714286,15.3285714 C15.4714286,15 15.5857143,14 15.5857143,13.2857143 C15.5857143,11.0857143 15.9285714,10.1571429 14.9428571,9.92857143 C14.6142857,9.84285714 14.3714286,9.78571429 13.5285714,9.78571429 C12.4571429,9.78571429 11.5428571,9.78571429 11.0285714,10.0428571 C10.7142857,10.2142857 10.4142857,10.5857143 10.5857143,10.6 C10.7857143,10.6285714 11.2285714,10.7285714 11.4714286,11.0571429 C11.7857143,11.4714286 11.7714286,12.4142857 11.7714286,12.4142857 C11.7714286,12.4142857 11.9428571,15.0142857 11.3571429,15.3428571 C10.9428571,15.5571429 10.3857143,15.1 9.2,13.0428571 C8.57142857,11.9857143 8.11428571,10.8142857 8.11428571,10.8142857 L7.85714286,10.5 L7.41428571,10.2857143 L4.54285714,10.2857143 C4.54285714,10.2857143 4.11428571,10.2857143 3.95714286,10.5 C3.81428571,10.6428571 3.94285714,10.9571429 3.94285714,10.9571429 C3.94285714,10.9571429 6.18571429,16.1571429 8.72857143,18.7857143 C11.0571429,21.2142857 13.7,20.9428571 13.7,20.9428571 L14.9,20.9428571 C14.9,20.9428571 15.2571429,21.0142857 15.4428571,20.8285714 C15.6142857,20.6428571 15.6142857,20.4142857 15.6142857,20.4142857 C15.6142857,20.4142857 15.5857143,18.8 16.3285714,18.5714286 C17.0714286,18.3571429 18.0142857,20.1142857 19.0142857,20.8142857 C19.7714286,21.3285714 20.3428571,21.2142857 20.3428571,21.2142857 L23.0285714,21.1714286 C23.0285714,21.1714286 24.4285714,21.0857143 23.7571429,19.9857143 C23.7142857,19.9 23.3714286,19.1714286 21.7714286,17.6857143" id="Imported-Layers" fill="#FFFFFF"/>
</svg>