<?xml version="1.0" encoding="iso-8859-1"?>
<!-- Generator: Adobe Illustrator 19.1.0, SVG Export Plug-In . SVG Version: 6.00 Build 0)  -->
<svg version="1.1" id="Layer_1" xmlns="http://www.w3.org/2000/svg" xmlns:xlink="http://www.w3.org/1999/xlink" x="0px" y="0px"
	 viewBox="0 0 81 90.971" style="enable-background:new 0 0 81 90.971;" xml:space="preserve">
<g>
	<path style="fill:#FFFFFF;" d="M80.959,64.516v-3.204C80.97,61.239,81,61.174,81,61.097c0-0.069-0.031-0.128-0.041-0.194V26.447
		c0-2.431-1.65-5.287-3.755-6.505L44.234,0.908c-2.044-1.18-5.465-1.18-7.512,0L3.753,19.942C1.648,21.159,0,24.016,0,26.447v38.069
		c0,2.431,1.648,5.289,3.753,6.505l32.968,19.034c1.023,0.59,2.358,0.916,3.757,0.916s2.733-0.326,3.757-0.916l32.968-19.034
		c1.069-0.618,2.018-1.66,2.695-2.853c0.015-0.031,0.033-0.058,0.046-0.09C80.572,66.944,80.959,65.683,80.959,64.516z
		 M43.446,66.153v-3.647h34.695v2.01c0,0.513-0.144,1.082-0.378,1.637H43.446z M38.132,87.614L5.164,68.58
		c-1.251-0.722-2.346-2.621-2.346-4.064V26.447c0-1.443,1.096-3.342,2.346-4.064L38.13,3.349c0.593-0.341,1.448-0.538,2.348-0.538
		c0.9,0,1.755,0.196,2.346,0.538l32.968,19.034c1.251,0.722,2.348,2.622,2.348,4.064v33.242H42.037c-0.778,0-1.409,0.63-1.409,1.409
		v6.464c0,0.778,0.631,1.409,1.409,1.409h33.08L45.854,85.865l-0.131-7.101c-0.05-2.696-2.286-4.913-4.985-4.94l-14.582-0.149
		c-0.509-0.005-0.939-0.19-1.208-0.52s-0.363-0.789-0.263-1.289l1.349-6.819c0.15-0.764-0.346-1.505-1.109-1.656
		c-0.767-0.161-1.503,0.345-1.656,1.109l-1.349,6.82c-0.26,1.318,0.046,2.636,0.843,3.614c0.795,0.977,2.021,1.546,3.366,1.559
		l14.582,0.149c1.168,0.012,2.173,1.008,2.195,2.175l0.153,8.283c0.002,0.12,0.043,0.227,0.074,0.338l-0.307,0.178
		C41.641,88.299,39.316,88.299,38.132,87.614z"/>
	<path style="fill:#FFFFFF;" d="M27.34,36.259c4.288,0,7.777-3.489,7.777-7.779s-3.488-7.778-7.777-7.778
		c-4.29,0-7.779,3.488-7.779,7.778S23.05,36.259,27.34,36.259z M27.34,23.52c2.735,0,4.959,2.225,4.959,4.96
		s-2.224,4.961-4.959,4.961s-4.961-2.226-4.961-4.961S24.605,23.52,27.34,23.52z"/>
	<path style="fill:#FFFFFF;" d="M42.044,54.557c-0.778,0-1.409,0.63-1.409,1.409s0.631,1.409,1.409,1.409h20.621l0.004,0.001
		c0.169,0,0.332-0.041,0.489-0.099c0.043-0.016,0.083-0.035,0.124-0.055c0.117-0.057,0.224-0.13,0.323-0.218
		c0.025-0.023,0.053-0.039,0.076-0.064c0.104-0.108,0.196-0.229,0.264-0.372l10.199-21.578c0.332-0.704,0.031-1.543-0.673-1.876
		l-4.65-2.202c-0.339-0.16-0.726-0.181-1.079-0.053c-0.351,0.126-0.638,0.386-0.798,0.724L56.071,54.557H42.044z M68.888,34.064
		l2.105,0.996l-9.217,19.498h-2.589L68.888,34.064z"/>
	<path style="fill:#FFFFFF;" d="M27.904,41.454c0.504,0,0.925,0.175,1.183,0.494c0.258,0.318,0.344,0.765,0.241,1.258l-0.772,3.701
		c-0.158,0.762,0.33,1.509,1.092,1.668c0.747,0.156,1.507-0.329,1.667-1.091l0.772-3.701c0.275-1.321-0.021-2.638-0.814-3.612
		c-0.791-0.974-2.019-1.534-3.37-1.534h-4.653c-2.592,0-5.114,1.97-5.744,4.485l-6.193,24.783c-0.187,0.755,0.27,1.52,1.025,1.709
		c0.115,0.028,0.231,0.042,0.344,0.042c0.631,0,1.206-0.427,1.366-1.068l6.193-24.783c0.313-1.252,1.718-2.351,3.009-2.351H27.904z"
		/>
	<path style="fill:#FFFFFF;" d="M28.078,57.851c-0.667-0.278-1.13-1.188-1.266-2.495l-1.029-9.86
		c-0.081-0.773-0.76-1.335-1.548-1.256c-0.774,0.081-1.337,0.774-1.256,1.548l1.029,9.86c0.251,2.402,1.312,4.109,2.99,4.804
		c0.513,0.214,1.054,0.32,1.61,0.32c1.259,0,2.599-0.54,3.903-1.591l8.51-6.869h5.814c0.778,0,1.409-0.63,1.409-1.409
		s-0.631-1.409-1.409-1.409h-6.313c-0.061,0-0.114,0.027-0.173,0.035c-0.1,0.012-0.197,0.025-0.293,0.059
		c-0.091,0.032-0.169,0.081-0.25,0.13c-0.055,0.033-0.118,0.046-0.169,0.088l-8.897,7.182
		C29.719,57.812,28.752,58.129,28.078,57.851z"/>
</g>
</svg>
