<?xml version="1.0" encoding="iso-8859-1"?>
<!-- Generator: Adobe Illustrator 19.1.0, SVG Export Plug-In . SVG Version: 6.00 Build 0)  -->
<svg version="1.1" id="Layer_1" xmlns="http://www.w3.org/2000/svg" xmlns:xlink="http://www.w3.org/1999/xlink" x="0px" y="0px"
	 viewBox="0 0 81 90.995" style="enable-background:new 0 0 81 90.995;" xml:space="preserve">
<g>
	<path style="fill:#FFFFFF;" d="M77.243,19.93L44.256,0.885c-2.045-1.181-5.466-1.181-7.514,0L3.755,19.929
		C1.649,21.147,0,24.006,0,26.438v38.089c0,2.433,1.649,5.291,3.755,6.508l32.987,19.044c1.022,0.59,2.358,0.916,3.757,0.916
		c1.401,0,2.735-0.326,3.759-0.916l32.983-19.044C79.35,69.818,81,66.96,81,64.526V26.438C81,24.005,79.35,21.146,77.243,19.93z
		 M78.181,64.526c0,1.445-1.098,3.344-2.349,4.066L42.847,87.636c-1.182,0.685-3.506,0.687-4.693,0L5.167,68.592
		c-1.251-0.722-2.347-2.622-2.347-4.066V26.438c0-1.444,1.096-3.344,2.347-4.066L38.153,3.328c0.592-0.342,1.447-0.538,2.346-0.538
		c0.9,0,1.755,0.196,2.347,0.538l32.987,19.045c1.249,0.722,2.347,2.621,2.347,4.066V64.526z"/>
	<path style="fill:#FFFFFF;" d="M72.001,39.664h-2.988V29.177c0-0.779-0.632-1.409-1.409-1.409h-53.31
		c-0.778,0-1.409,0.631-1.409,1.409v10.486H8.997c-0.778,0-1.409,0.631-1.409,1.41v9.693v4.846v6.168c0,0.779,0.632,1.41,1.409,1.41
		h8.555l-1.526,4.77c-0.237,0.741,0.17,1.535,0.912,1.772c0.143,0.047,0.287,0.068,0.43,0.068c0.597,0,1.151-0.382,1.342-0.981
		l1.762-5.507c0.013-0.04,0.017-0.081,0.026-0.121h39.78c0.009,0.04,0.013,0.081,0.026,0.121l1.762,5.507
		c0.191,0.599,0.745,0.981,1.342,0.981c0.143,0,0.287-0.021,0.43-0.068c0.742-0.237,1.15-1.031,0.912-1.772l-1.526-4.77h8.775
		c0.778,0,1.409-0.631,1.409-1.41v-6.168v-4.846v-9.693C73.41,40.294,72.779,39.664,72.001,39.664z M15.703,30.587h50.491v9.077
		h-4.767c-0.778,0-1.41,0.631-1.41,1.41v3.437H20.981v-3.437c0-0.779-0.632-1.41-1.41-1.41h-3.869V30.587z M60.017,47.329v6.874
		H20.981v-6.874H60.017z M10.407,50.766v-8.283h7.755v11.72h-3.869h-3.886V50.766z M70.591,60.371H10.407v-3.349h3.886h5.278h41.855
		h6.177h2.988V60.371z M70.591,50.766v3.437h-2.988h-4.767v-11.72h7.755V50.766z"/>
</g>
</svg>
