
<svg width="88px" height="34px" viewBox="57 4 88 34" version="1.1" xmlns="http://www.w3.org/2000/svg" xmlns:xlink="http://www.w3.org/1999/xlink">
    <!-- Generator: Sketch 3.7.2 (28276) - http://www.bohemiancoding.com/sketch -->
    <desc>Created with Sketch.</desc>
    <defs></defs>
    <g id="Imported-Layers-6" stroke="none" stroke-width="1" fill="none" fill-rule="evenodd" transform="translate(57.500000, 4.000000)">
        <g id="Group" transform="translate(0.000000, 15.000000)" fill="#FFFFFF">
            <path d="M2.052,9.105 C2.052,11.699 2.512,13.619 3.432,14.869 C4.353,16.119 5.584,16.743 7.125,16.743 C8.439,16.743 9.741,16.437 11.028,15.828 L11.592,17.194 C10.136,17.889 8.608,18.237 7.012,18.237 C6.044,18.237 5.156,18.053 4.348,17.687 C3.54,17.321 2.829,16.773 2.214,16.045 C1.598,15.318 1.116,14.359 0.769,13.17 C0.422,11.982 0.248,10.613 0.248,9.063 C0.248,5.775 0.781,3.403 1.847,1.947 C2.913,0.49 4.578,-0.238 6.843,-0.238 C8.317,-0.238 9.773,0.115 11.211,0.82 L11.211,4.23 L9.675,4.23 L9.675,1.791 C8.867,1.435 7.974,1.255 6.998,1.255 C6.152,1.255 5.442,1.367 4.87,1.587 C4.297,1.808 3.787,2.203 3.341,2.771 C2.894,3.339 2.568,4.145 2.361,5.187 C2.155,6.23 2.052,7.537 2.052,9.105" id="Fill-2"></path>
            <polyline id="Fill-3" points="18.561 1.412 18.561 0.001 30.131 0.001 30.131 1.412 25.213 1.412 25.213 18.095 23.409 18.095 23.409 1.412 18.561 1.412"></polyline>
            <path d="M47.305,18.095 L45.938,13.474 L38.794,13.474 L37.385,18.095 L35.426,18.095 L41.062,0.001 L43.754,0.001 L49.138,18.095 L47.305,18.095 L47.305,18.095 Z M45.502,12.177 L42.415,1.552 L39.217,12.177 L45.502,12.177 L45.502,12.177 Z" id="Fill-4"></path>
            <path d="M62.687,0.001 C63.645,0.001 64.471,0.086 65.161,0.255 C65.851,0.425 66.462,0.708 66.993,1.108 C67.523,1.507 67.923,2.059 68.19,2.763 C68.458,3.468 68.592,4.328 68.592,5.343 C68.592,6.198 68.484,6.933 68.267,7.548 C68.052,8.164 67.749,8.664 67.359,9.048 C66.969,9.434 66.452,9.738 65.808,9.958 C65.165,10.179 64.474,10.332 63.737,10.416 C63,10.499 62.114,10.542 61.081,10.542 L59.573,10.542 L59.573,18.095 L57.769,18.095 L57.769,0.001 L62.687,0.001 L62.687,0.001 Z M59.573,9.078 L60.757,9.078 C61.743,9.078 62.485,9.063 62.983,9.035 C63.481,9.006 64.024,8.931 64.611,8.809 C65.198,8.687 65.619,8.495 65.872,8.232 C66.126,7.968 66.342,7.605 66.52,7.139 C66.699,6.674 66.788,6.085 66.788,5.371 C66.788,3.859 66.473,2.82 65.844,2.256 C65.215,1.693 64.2,1.412 62.801,1.412 L59.573,1.412 L59.573,9.078 L59.573,9.078 Z" id="Fill-5"></path>
            <polyline id="Fill-6" points="74.604 1.412 74.604 0.001 86.174 0.001 86.174 1.412 81.256 1.412 81.256 18.095 79.452 18.095 79.452 1.412 74.604 1.412"></polyline>
        </g>
        <g id="Group" fill="#FFA601">
            <path d="M2.696,0.552 C2.759,0.457 2.843,0.38 2.948,0.322 C3.052,0.263 3.161,0.234 3.276,0.234 L4.274,0.234 L3.386,1.771 C3.317,1.886 3.249,1.978 3.179,2.048 C3.106,2.12 3.022,2.173 2.921,2.212 C3.059,2.258 3.173,2.324 3.259,2.408 C3.347,2.492 3.425,2.598 3.491,2.726 L4.378,4.463 L3.505,4.463 C3.393,4.463 3.296,4.455 3.212,4.437 C3.13,4.419 3.055,4.392 2.991,4.357 C2.925,4.322 2.868,4.279 2.819,4.227 C2.77,4.175 2.725,4.115 2.684,4.047 L2.235,2.983 C2.194,2.888 2.136,2.818 2.057,2.773 C1.981,2.728 1.891,2.706 1.792,2.706 L1.473,2.706 L1.473,4.463 L0.21,4.463 L0.21,0.234 L1.473,0.234 L1.473,1.91 L1.733,1.91 C1.848,1.91 1.932,1.892 1.989,1.855 C2.044,1.818 2.095,1.757 2.138,1.669 L2.696,0.552" id="Fill-7"></path>
            <path d="M11.526,0.169 C11.847,0.169 12.139,0.219 12.403,0.32 C12.667,0.42 12.893,0.564 13.083,0.751 C13.27,0.939 13.419,1.167 13.522,1.435 C13.628,1.703 13.68,2.003 13.68,2.338 C13.68,2.675 13.628,2.98 13.522,3.249 C13.419,3.521 13.27,3.75 13.083,3.939 C12.893,4.128 12.667,4.274 12.403,4.375 C12.139,4.478 11.847,4.529 11.526,4.529 C11.202,4.529 10.909,4.478 10.643,4.375 C10.378,4.274 10.149,4.128 9.958,3.939 C9.766,3.75 9.618,3.521 9.514,3.249 C9.409,2.98 9.356,2.675 9.356,2.338 C9.356,2.003 9.409,1.703 9.514,1.435 C9.618,1.167 9.766,0.939 9.958,0.751 C10.149,0.564 10.378,0.42 10.643,0.32 C10.909,0.219 11.202,0.169 11.526,0.169 L11.526,0.169 Z M11.526,3.591 C11.817,3.591 12.032,3.488 12.169,3.283 C12.305,3.078 12.374,2.765 12.374,2.347 C12.374,1.928 12.305,1.617 12.169,1.413 C12.032,1.208 11.817,1.107 11.526,1.107 C11.227,1.107 11.009,1.208 10.87,1.413 C10.731,1.617 10.661,1.928 10.661,2.347 C10.661,2.765 10.731,3.078 10.87,3.283 C11.009,3.488 11.227,3.591 11.526,3.591 L11.526,3.591 Z" id="Fill-8"></path>
            <path d="M20.979,0.234 C21.251,0.234 21.489,0.259 21.69,0.312 C21.891,0.363 22.057,0.435 22.188,0.528 C22.321,0.621 22.419,0.73 22.483,0.856 C22.546,0.982 22.579,1.121 22.579,1.27 C22.579,1.363 22.567,1.457 22.544,1.553 C22.52,1.65 22.481,1.743 22.423,1.831 C22.366,1.919 22.288,1.999 22.188,2.072 C22.091,2.144 21.962,2.201 21.807,2.245 C21.936,2.275 22.054,2.317 22.165,2.371 C22.274,2.425 22.37,2.492 22.45,2.571 C22.53,2.65 22.593,2.742 22.638,2.846 C22.682,2.951 22.706,3.07 22.706,3.203 C22.706,3.429 22.657,3.621 22.561,3.781 C22.468,3.939 22.341,4.07 22.184,4.169 C22.028,4.271 21.85,4.344 21.651,4.392 C21.45,4.439 21.247,4.463 21.036,4.463 L19.21,4.463 L19.21,0.234 L20.979,0.234 L20.979,0.234 Z M20.409,1.025 L20.409,1.959 L20.942,1.959 C21.098,1.959 21.225,1.912 21.323,1.818 C21.421,1.724 21.47,1.605 21.47,1.458 C21.47,1.406 21.462,1.355 21.444,1.302 C21.429,1.251 21.399,1.205 21.358,1.164 C21.319,1.123 21.264,1.089 21.196,1.064 C21.128,1.039 21.044,1.025 20.942,1.025 L20.409,1.025 L20.409,1.025 Z M21.028,3.631 C21.186,3.631 21.311,3.588 21.403,3.503 C21.497,3.417 21.542,3.301 21.542,3.154 C21.542,3.094 21.536,3.037 21.524,2.983 C21.513,2.929 21.487,2.88 21.45,2.84 C21.415,2.799 21.362,2.767 21.294,2.744 C21.225,2.721 21.138,2.709 21.028,2.709 L20.409,2.709 L20.409,3.631 L21.028,3.631 L21.028,3.631 Z" id="Fill-9"></path>
            <path d="M30.198,0.169 C30.518,0.169 30.811,0.219 31.075,0.32 C31.339,0.42 31.563,0.564 31.753,0.751 C31.942,0.939 32.089,1.167 32.194,1.435 C32.298,1.703 32.35,2.003 32.35,2.338 C32.35,2.675 32.298,2.98 32.194,3.249 C32.089,3.521 31.942,3.75 31.753,3.939 C31.563,4.128 31.339,4.274 31.075,4.375 C30.811,4.478 30.518,4.529 30.198,4.529 C29.874,4.529 29.579,4.478 29.315,4.375 C29.05,4.274 28.821,4.128 28.63,3.939 C28.438,3.75 28.29,3.521 28.184,3.249 C28.081,2.98 28.028,2.675 28.028,2.338 C28.028,2.003 28.081,1.703 28.184,1.435 C28.29,1.167 28.438,0.939 28.63,0.751 C28.821,0.564 29.05,0.42 29.315,0.32 C29.579,0.219 29.874,0.169 30.198,0.169 L30.198,0.169 Z M30.198,3.591 C30.489,3.591 30.702,3.488 30.841,3.283 C30.977,3.078 31.046,2.765 31.046,2.347 C31.046,1.928 30.977,1.617 30.841,1.413 C30.702,1.208 30.489,1.107 30.198,1.107 C29.897,1.107 29.679,1.208 29.54,1.413 C29.401,1.617 29.333,1.928 29.333,2.347 C29.333,2.765 29.401,3.078 29.54,3.283 C29.679,3.488 29.897,3.591 30.198,3.591 L30.198,3.591 Z" id="Fill-10"></path>
            <path d="M39.067,0.756 C39.233,0.58 39.421,0.435 39.632,0.322 C39.843,0.208 40.095,0.152 40.386,0.152 C40.604,0.152 40.809,0.202 40.997,0.299 C41.184,0.398 41.347,0.539 41.481,0.724 C41.618,0.908 41.725,1.134 41.801,1.402 C41.88,1.67 41.919,1.974 41.919,2.314 C41.919,2.632 41.874,2.925 41.786,3.195 C41.698,3.464 41.573,3.699 41.415,3.896 C41.255,4.095 41.065,4.249 40.845,4.361 C40.622,4.472 40.376,4.529 40.108,4.529 C39.888,4.529 39.702,4.498 39.554,4.435 C39.403,4.373 39.266,4.289 39.145,4.182 L39.145,5.805 L37.882,5.805 L37.882,0.234 L38.663,0.234 C38.821,0.234 38.925,0.304 38.973,0.447 L39.067,0.756 L39.067,0.756 Z M39.145,3.314 C39.241,3.416 39.343,3.49 39.456,3.534 C39.567,3.578 39.682,3.599 39.805,3.599 C39.923,3.599 40.03,3.576 40.128,3.529 C40.225,3.484 40.311,3.41 40.384,3.307 C40.454,3.205 40.511,3.073 40.552,2.91 C40.593,2.747 40.614,2.548 40.614,2.314 C40.614,2.091 40.597,1.904 40.563,1.751 C40.532,1.599 40.485,1.476 40.429,1.382 C40.37,1.289 40.3,1.221 40.218,1.18 C40.136,1.14 40.046,1.119 39.944,1.119 C39.759,1.119 39.606,1.154 39.487,1.221 C39.368,1.289 39.253,1.388 39.145,1.519 L39.145,3.314 L39.145,3.314 Z" id="Fill-11"></path>
            <path d="M49.948,0.552 C50.011,0.457 50.095,0.38 50.2,0.322 C50.304,0.263 50.413,0.234 50.528,0.234 L51.526,0.234 L50.638,1.771 C50.569,1.886 50.501,1.978 50.43,2.048 C50.358,2.12 50.274,2.173 50.173,2.212 C50.311,2.258 50.425,2.324 50.511,2.408 C50.598,2.492 50.677,2.598 50.743,2.726 L51.63,4.463 L50.757,4.463 C50.645,4.463 50.548,4.455 50.464,4.437 C50.382,4.419 50.307,4.392 50.243,4.357 C50.177,4.322 50.12,4.279 50.071,4.227 C50.022,4.175 49.977,4.115 49.936,4.047 L49.487,2.983 C49.446,2.888 49.388,2.818 49.309,2.773 C49.233,2.728 49.143,2.706 49.044,2.706 L48.725,2.706 L48.725,4.463 L47.462,4.463 L47.462,0.234 L48.725,0.234 L48.725,1.91 L48.985,1.91 C49.1,1.91 49.184,1.892 49.241,1.855 C49.296,1.818 49.346,1.757 49.389,1.669 L49.948,0.552" id="Fill-12"></path>
            <path d="M60.934,0.234 L60.934,4.463 L59.671,4.463 L59.671,2.31 C59.671,2.24 59.675,2.163 59.682,2.08 C59.692,1.997 59.702,1.912 59.716,1.825 C59.651,1.972 59.581,2.095 59.509,2.196 C59.503,2.201 59.479,2.234 59.44,2.293 C59.401,2.353 59.35,2.43 59.29,2.524 C59.229,2.618 59.159,2.723 59.081,2.84 C59.005,2.957 58.925,3.077 58.843,3.199 C58.653,3.484 58.44,3.806 58.202,4.166 C58.179,4.201 58.151,4.237 58.12,4.274 C58.089,4.31 58.053,4.343 58.014,4.372 C57.977,4.4 57.936,4.423 57.893,4.441 C57.848,4.458 57.804,4.467 57.755,4.467 L56.979,4.467 L56.979,0.238 L58.243,0.238 L58.243,2.392 C58.243,2.459 58.239,2.536 58.231,2.621 C58.223,2.705 58.212,2.791 58.198,2.876 C58.264,2.73 58.333,2.607 58.407,2.505 C58.409,2.5 58.43,2.468 58.472,2.408 C58.513,2.348 58.563,2.271 58.626,2.177 C58.686,2.083 58.755,1.978 58.833,1.861 C58.911,1.745 58.989,1.624 59.071,1.502 C59.263,1.216 59.475,0.895 59.712,0.537 C59.737,0.501 59.764,0.464 59.796,0.427 C59.827,0.391 59.862,0.359 59.899,0.33 C59.938,0.301 59.977,0.279 60.022,0.261 C60.065,0.244 60.112,0.234 60.161,0.234 L60.934,0.234" id="Fill-13"></path>
            <polyline id="Fill-14" points="70.52 0.234 70.52 4.463 69.257 4.463 69.257 2.677 67.95 2.677 67.95 4.463 66.686 4.463 66.686 0.234 67.95 0.234 67.95 1.771 69.257 1.771 69.257 0.234 70.52 0.234"></polyline>
            <polyline id="Fill-15" points="79.247 1.14 77.534 1.14 77.534 4.463 76.27 4.463 76.27 0.234 79.247 0.234 79.247 1.14"></polyline>
        </g>
    </g>
</svg>